<?xml version="1.0" encoding="iso-8859-1"?>
<!-- Uploaded to: SVG Repo, www.svgrepo.com, Generator: SVG Repo Mixer Tools -->
<svg fill="#000000" version="1.1" id="Layer_1" xmlns="http://www.w3.org/2000/svg" xmlns:xlink="http://www.w3.org/1999/xlink" 
	 viewBox="0 0 222.334 222.334" xml:space="preserve">
<g>
	<g>
		<g>
			<rect y="51.466" width="222.334" height="8.235"/>
			<polygon points="205.865,146.164 189.396,146.164 181.161,146.164 164.692,146.164 156.458,146.164 139.988,146.164 
				131.754,146.164 115.285,146.164 107.05,146.164 90.581,146.164 82.346,146.164 65.877,146.164 57.642,146.164 41.173,146.164 
				32.938,146.164 16.469,146.164 8.235,146.164 0,146.164 0,154.399 8.235,154.399 8.235,170.868 16.469,170.868 16.469,154.399 
				32.938,154.399 32.938,170.868 41.173,170.868 41.173,154.399 57.642,154.399 57.642,170.868 65.877,170.868 65.877,154.399 
				82.346,154.399 82.346,170.868 90.581,170.868 90.581,154.399 107.05,154.399 107.05,170.868 115.285,170.868 115.285,154.399 
				131.754,154.399 131.754,170.868 139.988,170.868 139.988,154.399 156.458,154.399 156.458,170.868 164.692,170.868 
				164.692,154.399 181.161,154.399 181.161,170.868 189.396,170.868 189.396,154.399 205.865,154.399 205.865,170.868 
				214.1,170.868 214.1,154.399 222.334,154.399 222.334,146.164 214.1,146.164 			"/>
			<path d="M41.173,96.757c0-9.083-7.386-16.469-16.469-16.469c-9.083,0-16.469,7.385-16.469,16.469
				c0,9.084,7.386,16.469,16.469,16.469S41.173,105.84,41.173,96.757z M16.469,96.757c0-4.539,3.695-8.235,8.235-8.235
				c4.54,0,8.235,3.695,8.235,8.235c0,4.54-3.695,8.235-8.235,8.235C20.164,104.992,16.469,101.296,16.469,96.757z"/>
			<path d="M115.285,92.639c-6.811,0-12.352,5.541-12.352,12.352c0,6.811,5.541,12.352,12.352,12.352
				c6.811,0,12.352-5.541,12.352-12.352C127.637,98.18,122.096,92.639,115.285,92.639z M115.285,109.109
				c-2.272,0-4.117-1.845-4.117-4.117c0-2.272,1.845-4.117,4.117-4.117c2.272,0,4.117,1.845,4.117,4.117
				C119.402,107.263,117.556,109.109,115.285,109.109z"/>
			<circle cx="201.748" cy="129.695" r="8.235"/>
			<path d="M46.983,118.823c-1.556,2.923-1.878,6.269-0.909,9.425c0.969,3.14,3.108,5.726,6.023,7.274
				c1.842,0.981,3.82,1.444,5.774,1.444c4.423,0,8.705-2.376,10.924-6.542l7.74-14.559c3.197-6.011,0.901-13.502-5.115-16.699
				c-6.003-3.197-13.502-0.901-16.699,5.103L46.983,118.823z M61.993,108.136c1.082-2.031,3.522-2.778,5.565-1.701
				c2.006,1.066,2.771,3.562,1.709,5.565l-7.74,14.556c-1.082,2.034-3.526,2.778-5.565,1.697c-0.977-0.519-1.693-1.383-2.015-2.428
				c-0.322-1.045-0.213-2.155,0.306-3.132L61.993,108.136z"/>
			<path d="M141.123,91.02l6.228,5.416c2.332,2.026,5.215,3.019,8.086,3.019c3.454,0,6.892-1.439,9.336-4.246
				c2.171-2.501,3.241-5.686,3.008-8.974c-0.233-3.281-1.733-6.281-4.222-8.444l-6.228-5.416c-2.489-2.159-5.653-3.221-8.958-2.992
				c-3.293,0.233-6.297,1.729-8.456,4.218c-2.175,2.493-3.245,5.677-3.016,8.963C137.13,85.849,138.63,88.852,141.123,91.02z
				 M146.128,79.004c0.72-0.832,1.721-1.331,2.822-1.407c0.096-0.008,0.197-0.008,0.294-0.008c0.989,0,1.934,0.35,2.682,1.001
				l6.228,5.416c0.832,0.724,1.335,1.721,1.411,2.81c0.077,1.089-0.282,2.151-1.009,2.988c-1.488,1.709-4.097,1.906-5.802,0.414
				l-6.228-5.416c-0.836-0.723-1.335-1.72-1.411-2.81C145.038,80.903,145.397,79.841,146.128,79.004z"/>
			<path d="M60.067,76.154c5.054-0.438,19.983-0.028,22.492,7.495c0.575,1.725,2.179,2.815,3.904,2.815
				c0.43,0,0.868-0.068,1.303-0.213c2.155-0.716,3.321-3.048,2.601-5.207c-5.09-15.275-29.979-13.184-31.041-13.092
				c-2.26,0.205-3.928,2.207-3.723,4.467C55.801,74.686,57.835,76.391,60.067,76.154z"/>
			<path d="M199.814,87.09c-1.934-1.21-4.471-0.619-5.673,1.307l-10.293,16.469c-1.206,1.93-0.619,4.471,1.307,5.673
				c0.679,0.426,1.435,0.627,2.179,0.627c1.371,0,2.714-0.683,3.494-1.934l10.293-16.469
				C202.327,90.834,201.74,88.293,199.814,87.09z"/>
			<path d="M123.583,128.352c0.35,1.999,2.087,3.402,4.049,3.402c0.237,0,0.478-0.02,0.72-0.064l34.997-6.176
				c2.239-0.394,3.735-2.529,3.337-4.769c-0.394-2.239-2.529-3.755-4.769-3.337l-34.997,6.176
				C124.681,123.977,123.185,126.113,123.583,128.352z"/>
		</g>
	</g>
</g>
</svg>